<svg width="173" height="24" viewBox="0 0 173 24" fill="none" xmlns="http://www.w3.org/2000/svg">
<path d="M29.816 16.832C31.1707 15.744 32.232 14.8533 33 14.16C33.768 13.456 34.4133 12.7253 34.936 11.968C35.4693 11.2 35.736 10.448 35.736 9.712C35.736 9.01867 35.5653 8.47467 35.224 8.08C34.8933 7.67467 34.3547 7.472 33.608 7.472C32.8827 7.472 32.3173 7.70133 31.912 8.16C31.5173 8.608 31.304 9.21067 31.272 9.968H29.864C29.9067 8.77333 30.2693 7.85067 30.952 7.2C31.6347 6.54933 32.5147 6.224 33.592 6.224C34.6907 6.224 35.56 6.528 36.2 7.136C36.8507 7.744 37.176 8.58133 37.176 9.648C37.176 10.5333 36.9093 11.3973 36.376 12.24C35.8533 13.072 35.256 13.808 34.584 14.448C33.912 15.0773 33.0533 15.8133 32.008 16.656H37.512V17.872H29.816V16.832ZM39.1951 12.096C39.1951 10.2613 39.4938 8.832 40.0911 7.808C40.6885 6.77333 41.7338 6.256 43.2271 6.256C44.7098 6.256 45.7498 6.77333 46.3471 7.808C46.9445 8.832 47.2431 10.2613 47.2431 12.096C47.2431 13.9627 46.9445 15.4133 46.3471 16.448C45.7498 17.4827 44.7098 18 43.2271 18C41.7338 18 40.6885 17.4827 40.0911 16.448C39.4938 15.4133 39.1951 13.9627 39.1951 12.096ZM45.8031 12.096C45.8031 11.168 45.7391 10.384 45.6111 9.744C45.4938 9.09333 45.2431 8.57067 44.8591 8.176C44.4858 7.78133 43.9418 7.584 43.2271 7.584C42.5018 7.584 41.9471 7.78133 41.5631 8.176C41.1898 8.57067 40.9391 9.09333 40.8111 9.744C40.6938 10.384 40.6351 11.168 40.6351 12.096C40.6351 13.056 40.6938 13.8613 40.8111 14.512C40.9391 15.1627 41.1898 15.6853 41.5631 16.08C41.9471 16.4747 42.5018 16.672 43.2271 16.672C43.9418 16.672 44.4858 16.4747 44.8591 16.08C45.2431 15.6853 45.4938 15.1627 45.6111 14.512C45.7391 13.8613 45.8031 13.056 45.8031 12.096ZM49.066 16.832C50.4207 15.744 51.482 14.8533 52.25 14.16C53.018 13.456 53.6633 12.7253 54.186 11.968C54.7193 11.2 54.986 10.448 54.986 9.712C54.986 9.01867 54.8153 8.47467 54.474 8.08C54.1433 7.67467 53.6047 7.472 52.858 7.472C52.1327 7.472 51.5673 7.70133 51.162 8.16C50.7673 8.608 50.554 9.21067 50.522 9.968H49.114C49.1567 8.77333 49.5193 7.85067 50.202 7.2C50.8847 6.54933 51.7647 6.224 52.842 6.224C53.9407 6.224 54.81 6.528 55.45 7.136C56.1007 7.744 56.426 8.58133 56.426 9.648C56.426 10.5333 56.1593 11.3973 55.626 12.24C55.1033 13.072 54.506 13.808 53.834 14.448C53.162 15.0773 52.3033 15.8133 51.258 16.656H56.762V17.872H49.066V16.832ZM58.2691 16.832C59.6238 15.744 60.6851 14.8533 61.4531 14.16C62.2211 13.456 62.8665 12.7253 63.3891 11.968C63.9225 11.2 64.1891 10.448 64.1891 9.712C64.1891 9.01867 64.0185 8.47467 63.6771 8.08C63.3465 7.67467 62.8078 7.472 62.0611 7.472C61.3358 7.472 60.7705 7.70133 60.3651 8.16C59.9705 8.608 59.7571 9.21067 59.7251 9.968H58.3171C58.3598 8.77333 58.7225 7.85067 59.4051 7.2C60.0878 6.54933 60.9678 6.224 62.0451 6.224C63.1438 6.224 64.0131 6.528 64.6531 7.136C65.3038 7.744 65.6291 8.58133 65.6291 9.648C65.6291 10.5333 65.3625 11.3973 64.8291 12.24C64.3065 13.072 63.7091 13.808 63.0371 14.448C62.3651 15.0773 61.5065 15.8133 60.4611 16.656H65.9651V17.872H58.2691V16.832ZM73.6099 16.816H77.5139V18H72.1539V6.848H73.6099V16.816ZM86.8361 9.232V18H85.3801V16.704C85.1028 17.152 84.7135 17.504 84.2121 17.76C83.7215 18.0053 83.1775 18.128 82.5801 18.128C81.8975 18.128 81.2841 17.9893 80.7401 17.712C80.1961 17.424 79.7641 16.9973 79.4441 16.432C79.1348 15.8667 78.9801 15.1787 78.9801 14.368V9.232H80.4201V14.176C80.4201 15.04 80.6388 15.7067 81.0761 16.176C81.5135 16.6347 82.1108 16.864 82.8681 16.864C83.6468 16.864 84.2601 16.624 84.7081 16.144C85.1561 15.664 85.3801 14.9653 85.3801 14.048V9.232H86.8361ZM88.7505 13.6C88.7505 12.6933 88.9318 11.904 89.2945 11.232C89.6572 10.5493 90.1585 10.0213 90.7985 9.648C91.4492 9.27467 92.1905 9.088 93.0225 9.088C94.0998 9.088 94.9852 9.34933 95.6785 9.872C96.3825 10.3947 96.8465 11.12 97.0705 12.048H95.5025C95.3532 11.5147 95.0598 11.0933 94.6225 10.784C94.1958 10.4747 93.6625 10.32 93.0225 10.32C92.1905 10.32 91.5185 10.608 91.0065 11.184C90.4945 11.7493 90.2385 12.5547 90.2385 13.6C90.2385 14.656 90.4945 15.472 91.0065 16.048C91.5185 16.624 92.1905 16.912 93.0225 16.912C93.6625 16.912 94.1958 16.7627 94.6225 16.464C95.0492 16.1653 95.3425 15.7387 95.5025 15.184H97.0705C96.8358 16.08 96.3665 16.8 95.6625 17.344C94.9585 17.8773 94.0785 18.144 93.0225 18.144C92.1905 18.144 91.4492 17.9573 90.7985 17.584C90.1585 17.2107 89.6572 16.6827 89.2945 16C88.9318 15.3173 88.7505 14.5173 88.7505 13.6ZM98.4693 13.584C98.4693 12.688 98.6506 11.904 99.0133 11.232C99.3759 10.5493 99.8719 10.0213 100.501 9.648C101.141 9.27467 101.851 9.088 102.629 9.088C103.397 9.088 104.064 9.25333 104.629 9.584C105.195 9.91467 105.616 10.3307 105.893 10.832V9.232H107.365V18H105.893V16.368C105.605 16.88 105.173 17.3067 104.597 17.648C104.032 17.9787 103.371 18.144 102.613 18.144C101.835 18.144 101.131 17.952 100.501 17.568C99.8719 17.184 99.3759 16.6453 99.0133 15.952C98.6506 15.2587 98.4693 14.4693 98.4693 13.584ZM105.893 13.6C105.893 12.9387 105.76 12.3627 105.493 11.872C105.227 11.3813 104.864 11.008 104.405 10.752C103.957 10.4853 103.461 10.352 102.917 10.352C102.373 10.352 101.877 10.48 101.429 10.736C100.981 10.992 100.624 11.3653 100.357 11.856C100.091 12.3467 99.9573 12.9227 99.9573 13.584C99.9573 14.256 100.091 14.8427 100.357 15.344C100.624 15.8347 100.981 16.2133 101.429 16.48C101.877 16.736 102.373 16.864 102.917 16.864C103.461 16.864 103.957 16.736 104.405 16.48C104.864 16.2133 105.227 15.8347 105.493 15.344C105.76 14.8427 105.893 14.2613 105.893 13.6ZM112.93 18.144C112.258 18.144 111.655 18.032 111.122 17.808C110.588 17.5733 110.167 17.2533 109.858 16.848C109.548 16.432 109.378 15.9573 109.346 15.424H110.85C110.892 15.8613 111.095 16.2187 111.458 16.496C111.831 16.7733 112.316 16.912 112.914 16.912C113.468 16.912 113.906 16.7893 114.226 16.544C114.546 16.2987 114.706 15.9893 114.706 15.616C114.706 15.232 114.535 14.9493 114.194 14.768C113.852 14.576 113.324 14.3893 112.61 14.208C111.959 14.0373 111.426 13.8667 111.01 13.696C110.604 13.5147 110.252 13.2533 109.954 12.912C109.666 12.56 109.522 12.1013 109.522 11.536C109.522 11.088 109.655 10.6773 109.922 10.304C110.188 9.93067 110.567 9.63733 111.058 9.424C111.548 9.2 112.108 9.088 112.738 9.088C113.708 9.088 114.492 9.33333 115.09 9.824C115.687 10.3147 116.007 10.9867 116.05 11.84H114.594C114.562 11.3813 114.375 11.0133 114.034 10.736C113.703 10.4587 113.255 10.32 112.69 10.32C112.167 10.32 111.751 10.432 111.442 10.656C111.132 10.88 110.978 11.1733 110.978 11.536C110.978 11.824 111.068 12.064 111.25 12.256C111.442 12.4373 111.676 12.5867 111.954 12.704C112.242 12.8107 112.636 12.9333 113.138 13.072C113.767 13.2427 114.279 13.4133 114.674 13.584C115.068 13.744 115.404 13.9893 115.682 14.32C115.97 14.6507 116.119 15.0827 116.13 15.616C116.13 16.096 115.996 16.528 115.73 16.912C115.463 17.296 115.084 17.6 114.594 17.824C114.114 18.0373 113.559 18.144 112.93 18.144ZM128.323 18L125.667 13.44H123.907V18H122.451V6.848H126.051C126.893 6.848 127.603 6.992 128.179 7.28C128.765 7.568 129.203 7.95733 129.491 8.448C129.779 8.93867 129.923 9.49867 129.923 10.128C129.923 10.896 129.699 11.5733 129.251 12.16C128.813 12.7467 128.152 13.136 127.267 13.328L130.067 18H128.323ZM123.907 12.272H126.051C126.84 12.272 127.432 12.08 127.827 11.696C128.221 11.3013 128.419 10.7787 128.419 10.128C128.419 9.46667 128.221 8.95467 127.827 8.592C127.443 8.22933 126.851 8.048 126.051 8.048H123.907V12.272ZM140.185 13.28C140.185 13.5573 140.169 13.8507 140.137 14.16H133.129C133.182 15.024 133.476 15.7013 134.009 16.192C134.553 16.672 135.209 16.912 135.977 16.912C136.606 16.912 137.129 16.768 137.545 16.48C137.972 16.1813 138.27 15.7867 138.441 15.296H140.009C139.774 16.1387 139.305 16.8267 138.601 17.36C137.897 17.8827 137.022 18.144 135.977 18.144C135.145 18.144 134.398 17.9573 133.737 17.584C133.086 17.2107 132.574 16.6827 132.201 16C131.828 15.3067 131.641 14.5067 131.641 13.6C131.641 12.6933 131.822 11.8987 132.185 11.216C132.548 10.5333 133.054 10.0107 133.705 9.648C134.366 9.27467 135.124 9.088 135.977 9.088C136.809 9.088 137.545 9.26933 138.185 9.632C138.825 9.99467 139.316 10.496 139.657 11.136C140.009 11.7653 140.185 12.48 140.185 13.28ZM138.681 12.976C138.681 12.4213 138.558 11.9467 138.313 11.552C138.068 11.1467 137.732 10.8427 137.305 10.64C136.889 10.4267 136.425 10.32 135.913 10.32C135.177 10.32 134.548 10.5547 134.025 11.024C133.513 11.4933 133.22 12.144 133.145 12.976H138.681ZM146.379 9.072C147.446 9.072 148.31 9.39733 148.971 10.048C149.632 10.688 149.963 11.616 149.963 12.832V18H148.523V13.04C148.523 12.1653 148.304 11.4987 147.867 11.04C147.43 10.5707 146.832 10.336 146.075 10.336C145.307 10.336 144.694 10.576 144.235 11.056C143.787 11.536 143.563 12.2347 143.563 13.152V18H142.107V9.232H143.563V10.48C143.851 10.032 144.24 9.68533 144.731 9.44C145.232 9.19467 145.782 9.072 146.379 9.072ZM151.797 13.584C151.797 12.688 151.979 11.904 152.341 11.232C152.704 10.5493 153.2 10.0213 153.829 9.648C154.469 9.27467 155.179 9.088 155.957 9.088C156.725 9.088 157.392 9.25333 157.957 9.584C158.523 9.91467 158.944 10.3307 159.221 10.832V9.232H160.693V18H159.221V16.368C158.933 16.88 158.501 17.3067 157.925 17.648C157.36 17.9787 156.699 18.144 155.941 18.144C155.163 18.144 154.459 17.952 153.829 17.568C153.2 17.184 152.704 16.6453 152.341 15.952C151.979 15.2587 151.797 14.4693 151.797 13.584ZM159.221 13.6C159.221 12.9387 159.088 12.3627 158.821 11.872C158.555 11.3813 158.192 11.008 157.733 10.752C157.285 10.4853 156.789 10.352 156.245 10.352C155.701 10.352 155.205 10.48 154.757 10.736C154.309 10.992 153.952 11.3653 153.685 11.856C153.419 12.3467 153.285 12.9227 153.285 13.584C153.285 14.256 153.419 14.8427 153.685 15.344C153.952 15.8347 154.309 16.2133 154.757 16.48C155.205 16.736 155.701 16.864 156.245 16.864C156.789 16.864 157.285 16.736 157.733 16.48C158.192 16.2133 158.555 15.8347 158.821 15.344C159.088 14.8427 159.221 14.2613 159.221 13.6ZM167.426 9.072C168.493 9.072 169.357 9.39733 170.018 10.048C170.679 10.688 171.01 11.616 171.01 12.832V18H169.57V13.04C169.57 12.1653 169.351 11.4987 168.914 11.04C168.477 10.5707 167.879 10.336 167.122 10.336C166.354 10.336 165.741 10.576 165.282 11.056C164.834 11.536 164.61 12.2347 164.61 13.152V18H163.154V9.232H164.61V10.48C164.898 10.032 165.287 9.68533 165.778 9.44C166.279 9.19467 166.829 9.072 167.426 9.072Z" fill="white"/>
<path d="M8.5 3.26562C3.95227 3.26562 0.265625 6.95227 0.265625 11.5C0.265625 16.0477 3.95227 19.7344 8.5 19.7344C13.0477 19.7344 16.7344 16.0477 16.7344 11.5C16.7344 6.95227 13.0477 3.26562 8.5 3.26562ZM8.5 18.1406C4.82999 18.1406 1.85938 15.1706 1.85938 11.5C1.85938 7.83003 4.82943 4.85938 8.5 4.85938C12.17 4.85938 15.1406 7.82943 15.1406 11.5C15.1406 15.17 12.1706 18.1406 8.5 18.1406ZM12.0644 14.785C11.7452 15.1075 10.5527 16.1595 8.60911 16.1595C5.87217 16.1595 3.9446 14.12 3.9446 11.459C3.9446 8.8309 5.94592 6.83045 8.58513 6.83045C10.4289 6.83045 11.5315 7.71431 11.8255 7.98522C11.8946 8.04876 11.939 8.1347 11.9507 8.22783C11.9625 8.32095 11.9409 8.41523 11.8898 8.49396L11.287 9.42739C11.1595 9.62495 10.8897 9.66918 10.706 9.52438C10.4206 9.2994 9.64966 8.77605 8.65708 8.77605C7.05327 8.77605 6.07003 9.94912 6.07003 11.435C6.07003 12.8159 6.9628 14.2139 8.66907 14.2139C9.75339 14.2139 10.5564 13.5817 10.8514 13.3099C11.0264 13.1486 11.3028 13.1758 11.4431 13.3676L12.1026 14.2697C12.1589 14.346 12.1859 14.4399 12.1789 14.5344C12.1719 14.629 12.1313 14.7178 12.0644 14.785Z" fill="white"/>
</svg>
