<svg width="32" height="32" viewBox="0 0 32 32" fill="none" xmlns="http://www.w3.org/2000/svg">
<path d="M15.9153 9.42505C11.9647 9.42505 8.69136 12.642 8.69136 16.649C8.69136 20.6561 11.9083 23.873 15.9153 23.873C19.9224 23.873 23.1393 20.5997 23.1393 16.649C23.1393 12.6984 19.866 9.42505 15.9153 9.42505ZM15.9153 21.2769C13.3757 21.2769 11.2875 19.1887 11.2875 16.649C11.2875 14.1094 13.3757 12.0212 15.9153 12.0212C18.455 12.0212 20.5432 14.1094 20.5432 16.649C20.5432 19.1887 18.455 21.2769 15.9153 21.2769Z" fill="white"/>
<path d="M23.4215 10.8924C24.3254 10.8924 25.0582 10.1596 25.0582 9.25573C25.0582 8.35182 24.3254 7.61905 23.4215 7.61905C22.5176 7.61905 21.7848 8.35182 21.7848 9.25573C21.7848 10.1596 22.5176 10.8924 23.4215 10.8924Z" fill="white"/>
<path d="M27.6543 5.02292C26.1869 3.49911 24.0988 2.70898 21.7284 2.70898H10.1023C5.19224 2.70898 1.91887 5.98235 1.91887 10.8924V22.4621C1.91887 24.8889 2.70899 26.9771 4.28924 28.5009C5.81305 29.9682 7.8448 30.7019 10.1587 30.7019H21.672C24.0988 30.7019 26.1305 29.9118 27.5979 28.5009C29.1217 27.0335 29.9118 24.9453 29.9118 22.5185V10.8924C29.9118 8.52204 29.1217 6.49029 27.6543 5.02292ZM27.4286 22.5185C27.4286 24.2681 26.8078 25.679 25.7919 26.6384C24.776 27.5979 23.3651 28.1058 21.672 28.1058H10.1587C8.46561 28.1058 7.05467 27.5979 6.0388 26.6384C5.02293 25.6226 4.51499 24.2116 4.51499 22.4621V10.8924C4.51499 9.19928 5.02293 7.78835 6.0388 6.77248C6.99824 5.81304 8.46561 5.3051 10.1587 5.3051H21.7848C23.478 5.3051 24.8889 5.81304 25.9048 6.82891C26.8642 7.84479 27.4286 9.25572 27.4286 10.8924V22.5185Z" fill="white"/>
</svg>
