<svg width="32" height="32" viewBox="0 0 32 32" fill="none" xmlns="http://www.w3.org/2000/svg">
<path d="M10.0634 29.0008C22.1389 29.0008 28.7437 18.9964 28.7437 10.3205C28.7437 10.0364 28.7437 9.75349 28.7245 9.47186C30.0094 8.54243 31.1186 7.39174 32 6.07349C30.8018 6.60443 29.5306 6.95255 28.2291 7.10643C29.5994 6.28618 30.6256 4.99505 31.1155 3.47505C29.8268 4.23974 28.4167 4.77874 26.9466 5.06868C25.7052 3.74861 23.9714 2.99918 22.1595 2.99918C18.5544 2.99918 15.5879 5.96568 15.5879 9.57068C15.5879 10.0708 15.6451 10.5694 15.7581 11.0565C10.4819 10.7921 5.55931 8.29643 2.22719 4.19699C0.494437 7.17986 1.391 11.0455 4.25981 12.9611C3.21512 12.9302 2.19287 12.6483 1.28 12.1394V12.2226C1.28087 15.3359 3.49544 18.042 6.54719 18.6584C5.58069 18.922 4.56638 18.9605 3.58275 18.7711C4.44069 21.4389 6.91469 23.2778 9.7165 23.3304C7.39213 25.1571 4.51919 26.1494 1.56288 26.1464C1.0405 26.1454 0.518625 26.1138 0 26.0517C3.00213 27.9782 6.49625 29.0004 10.0634 28.9957" fill="white"/>
</svg>
